<svg width="22" height="19" viewBox="0 0 22 19" fill="none" xmlns="http://www.w3.org/2000/svg">
<path d="M21.0459 7.15784C20.9759 6.94823 20.7899 6.79547 20.5658 6.76382L14.2728 5.87364L11.4583 0.32269C11.3582 0.125085 11.1514 0 10.9251 0C10.6987 0 10.4919 0.125085 10.3917 0.32269L7.57719 5.87364L1.28422 6.76382C1.06025 6.79547 0.8741 6.94823 0.804161 7.1578C0.734181 7.3674 0.792544 7.59747 0.954665 7.75127L5.50819 12.0721L4.4334 18.1732C4.3951 18.3905 4.48685 18.6099 4.66999 18.7395C4.77359 18.8127 4.8963 18.85 5.0196 18.85C5.11428 18.85 5.20928 18.828 5.29627 18.7835L10.925 15.9029L16.5535 18.7835C16.7539 18.886 16.9967 18.8689 17.1798 18.7394C17.363 18.6099 17.4548 18.3904 17.4165 18.1732L16.3414 12.0721L20.8954 7.75123C21.0575 7.59747 21.1159 7.3674 21.0459 7.15784Z" fill="#FFCA56"/>
</svg>
